<svg width="24" height="24" viewBox="0 0 24 24" fill="none" xmlns="http://www.w3.org/2000/svg">
<path d="M21.2308 11.2308H15.0769C14.8729 11.2308 14.6773 11.3118 14.533 11.4561C14.3887 11.6003 14.3077 11.796 14.3077 12V21.2308C14.3077 21.4348 14.3887 21.6304 14.533 21.7747C14.6773 21.919 14.8729 22 15.0769 22H21.2308C21.4348 22 21.6304 21.919 21.7747 21.7747C21.919 21.6304 22 21.4348 22 21.2308V12C22 11.796 21.919 11.6003 21.7747 11.4561C21.6304 11.3118 21.4348 11.2308 21.2308 11.2308ZM21.2308 2H15.0769C14.8729 2 14.6773 2.08104 14.533 2.2253C14.3887 2.36956 14.3077 2.56522 14.3077 2.76923V5.86154C14.3077 6.06555 14.3887 6.26121 14.533 6.40547C14.6773 6.54973 14.8729 6.63077 15.0769 6.63077H21.2308C21.4348 6.63077 21.6304 6.54973 21.7747 6.40547C21.919 6.26121 22 6.06555 22 5.86154V2.76923C22 2.56522 21.919 2.36956 21.7747 2.2253C21.6304 2.08104 21.4348 2 21.2308 2ZM8.92308 2H2.76923C2.56522 2 2.36956 2.08104 2.2253 2.2253C2.08104 2.36956 2 2.56522 2 2.76923V12C2 12.204 2.08104 12.3997 2.2253 12.5439C2.36956 12.6882 2.56522 12.7692 2.76923 12.7692H8.92308C9.12709 12.7692 9.32275 12.6882 9.46701 12.5439C9.61126 12.3997 9.69231 12.204 9.69231 12V2.76923C9.69231 2.56522 9.61126 2.36956 9.46701 2.2253C9.32275 2.08104 9.12709 2 8.92308 2ZM8.92308 17.3692H2.76923C2.56522 17.3692 2.36956 17.4503 2.2253 17.5945C2.08104 17.7388 2 17.9344 2 18.1385V21.2308C2 21.4348 2.08104 21.6304 2.2253 21.7747C2.36956 21.919 2.56522 22 2.76923 22H8.92308C9.12709 22 9.32275 21.919 9.46701 21.7747C9.61126 21.6304 9.69231 21.4348 9.69231 21.2308V18.1385C9.69231 17.9344 9.61126 17.7388 9.46701 17.5945C9.32275 17.4503 9.12709 17.3692 8.92308 17.3692Z" stroke="black" stroke-linecap="round" stroke-linejoin="round"/>
</svg>
