<svg width="24" height="24" viewBox="0 0 24 24" fill="none" xmlns="http://www.w3.org/2000/svg">
<path d="M11.9997 3C11.6271 3 11.2697 3.14694 11.0063 3.40848C10.7428 3.67003 10.5948 4.02476 10.5948 4.39465V11.3679C10.5948 11.7378 10.7428 12.0925 11.0063 12.354C11.2697 12.6156 11.6271 12.7625 11.9997 12.7625C12.3722 12.7625 12.7296 12.6156 12.9931 12.354C13.2565 12.0925 13.4045 11.7378 13.4045 11.3679V4.39465C13.4045 4.02476 13.2565 3.67003 12.9931 3.40848C12.7296 3.14694 12.3722 3 11.9997 3ZM6.973 4.80886C6.77035 4.83427 6.5795 4.91761 6.42369 5.04874C5.35536 5.88482 4.49213 6.95073 3.89908 8.16613C3.30602 9.38153 2.99861 10.7147 3 12.0652C3 16.9869 7.04043 21 11.9997 21C16.9589 21 21 16.9869 21 12.0652C21 9.225 19.664 6.68396 17.5756 5.04804C17.4675 4.96219 17.3434 4.89832 17.2104 4.86007C17.0775 4.82183 16.9382 4.80996 16.8006 4.82514C16.663 4.84033 16.5298 4.88227 16.4085 4.94857C16.2872 5.01487 16.1803 5.10424 16.0938 5.21156C16.0073 5.31888 15.943 5.44207 15.9045 5.57408C15.8659 5.70608 15.854 5.84433 15.8693 5.98093C15.8846 6.11752 15.9268 6.24979 15.9936 6.37018C16.0604 6.49056 16.1504 6.59671 16.2585 6.68256C17.08 7.32276 17.744 8.14004 18.2004 9.07257C18.6567 10.0051 18.8935 11.0284 18.8927 12.0652C18.8949 12.9644 18.7181 13.8552 18.3725 14.6864C18.0269 15.5177 17.5192 16.2729 16.8787 16.9087C16.2382 17.5446 15.4774 18.0485 14.6401 18.3916C13.8028 18.7347 12.9055 18.9102 11.9997 18.908C11.0938 18.9102 10.1965 18.7347 9.35917 18.3916C8.52187 18.0485 7.7611 17.5446 7.12058 16.9087C6.48006 16.2729 5.97241 15.5177 5.62679 14.6864C5.28117 13.8552 5.1044 12.9644 5.10662 12.0652C5.10603 11.0285 5.34286 10.0052 5.7992 9.0727C6.25555 8.14021 6.91946 7.3229 7.74076 6.68256C7.92679 6.54386 8.06133 6.34793 8.12342 6.12535C8.1855 5.90276 8.17163 5.66604 8.08397 5.4521C7.99631 5.23817 7.83978 5.05905 7.63882 4.94269C7.43785 4.82633 7.20374 4.77927 6.973 4.80886Z" fill="black"/>
</svg>
