<svg width="24" height="25" viewBox="0 0 24 25" fill="none" xmlns="http://www.w3.org/2000/svg">
<g clip-path="url(#clip0_1_728)">
<path fill-rule="evenodd" clip-rule="evenodd" d="M12.707 15.907C12.5194 16.0945 12.2651 16.1998 12 16.1998C11.7348 16.1998 11.4805 16.0945 11.293 15.907L5.63598 10.2501C5.54047 10.1578 5.46428 10.0475 5.41188 9.92545C5.35947 9.80345 5.33188 9.67223 5.33073 9.53945C5.32957 9.40667 5.35487 9.27499 5.40516 9.1521C5.45544 9.0292 5.52969 8.91755 5.62358 8.82365C5.71747 8.72976 5.82913 8.65551 5.95202 8.60523C6.07492 8.55495 6.2066 8.52965 6.33938 8.5308C6.47216 8.53195 6.60338 8.55954 6.72538 8.61195C6.84739 8.66436 6.95773 8.74054 7.04998 8.83605L12 13.7861L16.95 8.83605C17.1386 8.65389 17.3912 8.5531 17.6534 8.55538C17.9156 8.55765 18.1664 8.66282 18.3518 8.84823C18.5372 9.03364 18.6424 9.28445 18.6447 9.54665C18.6469 9.80885 18.5461 10.0614 18.364 10.2501L12.707 15.907Z" fill="black"/>
</g>
<defs>
<clipPath id="clip0_1_728">
<rect width="24" height="24" fill="white" transform="translate(0 0.199951)"/>
</clipPath>
</defs>
</svg>
