<svg width="16" height="22" viewBox="0 0 16 22" fill="none" xmlns="http://www.w3.org/2000/svg">
<path d="M5.03073 7.6C4.58073 7.6 4.26839 7.39567 4.09372 6.987C3.91839 6.579 3.98906 6.21667 4.30572 5.9L6.90573 3.3C7.00573 3.2 7.11406 3.125 7.23073 3.075C7.34739 3.025 7.47239 3 7.60573 3C7.73906 3 7.86406 3.025 7.98073 3.075C8.09739 3.125 8.20572 3.2 8.30572 3.3L10.9057 5.9C11.2224 6.21667 11.2931 6.579 11.1177 6.987C10.9431 7.39567 10.6307 7.6 10.1807 7.6H5.03073Z" fill="black"/>
<path d="M6.90573 17.9001L4.30572 15.3001C3.98906 14.9834 3.91839 14.6211 4.09372 14.2131C4.26839 13.8044 4.58073 13.6001 5.03073 13.6001H10.1807C10.6307 13.6001 10.9431 13.8044 11.1177 14.2131C11.2931 14.6211 11.2224 14.9834 10.9057 15.3001L8.30572 17.9001C8.20572 18.0001 8.09739 18.0751 7.98073 18.1251C7.86406 18.1751 7.73906 18.2001 7.60573 18.2001C7.47239 18.2001 7.34739 18.1751 7.23073 18.1251C7.11406 18.0751 7.00573 18.0001 6.90573 17.9001Z" fill="black"/>
</svg>
