<svg width="24" height="24" viewBox="0 0 24 24" fill="none" xmlns="http://www.w3.org/2000/svg">
<path d="M15.3 17.3C15.1 17.1 15 16.8623 15 16.587C15 16.3117 15.1 16.0743 15.3 15.875L18.175 13H7C6.71667 13 6.479 12.904 6.287 12.712C6.095 12.52 5.99934 12.2827 6 12C6 11.7167 6.096 11.479 6.288 11.287C6.48 11.095 6.71734 10.9993 7 11H18.175L15.3 8.1C15.1167 7.91667 15.0207 7.68734 15.012 7.412C15.0033 7.13667 15.0993 6.89934 15.3 6.7C15.4833 6.51667 15.7167 6.425 16 6.425C16.2833 6.425 16.5167 6.51667 16.7 6.7L21.3 11.3C21.4 11.4 21.471 11.5083 21.513 11.625C21.555 11.7417 21.5757 11.8667 21.575 12C21.575 12.1333 21.554 12.2583 21.512 12.375C21.47 12.4917 21.3993 12.6 21.3 12.7L16.7 17.3C16.5167 17.4833 16.2873 17.575 16.012 17.575C15.7367 17.575 15.4993 17.4833 15.3 17.3ZM3 18C2.71667 18 2.479 17.904 2.287 17.712C2.095 17.52 1.99934 17.2827 2 17V7C2 6.71667 2.096 6.479 2.288 6.287C2.48 6.095 2.71734 5.99934 3 6C3.28334 6 3.521 6.096 3.713 6.288C3.905 6.48 4.00067 6.71734 4 7V17C4 17.2833 3.904 17.521 3.712 17.713C3.52 17.905 3.28267 18.0007 3 18Z" fill="black"/>
</svg>
