<svg width="24" height="25" viewBox="0 0 24 25" fill="none" xmlns="http://www.w3.org/2000/svg">
<path d="M2.40003 9.79985C2.40003 7.8903 3.1586 6.05895 4.50886 4.70868C5.85912 3.35842 7.69047 2.59985 9.60003 2.59985H13.2C14.2704 2.59985 15.2316 3.06785 15.8916 3.80825C15.7945 3.80255 15.6973 3.79975 15.6 3.79985H9.60003C8.00873 3.79985 6.48261 4.43199 5.35739 5.55721C4.23217 6.68243 3.60003 8.20855 3.60003 9.79985V15.7999C3.60003 15.8971 3.60243 15.9943 3.60843 16.0915C3.2279 15.754 2.9234 15.3395 2.71508 14.8755C2.50676 14.4115 2.39938 13.9085 2.40003 13.3999V9.79985ZM18 7.39985C18.9548 7.39985 19.8705 7.77914 20.5456 8.45427C21.2207 9.1294 21.6 10.0451 21.6 10.9999V18.1999C21.6 19.1546 21.2207 20.0703 20.5456 20.7454C19.8705 21.4206 18.9548 21.7999 18 21.7999H10.8C9.84525 21.7999 8.92957 21.4206 8.25444 20.7454C7.57931 20.0703 7.20003 19.1546 7.20003 18.1999V10.9999C7.20003 10.0451 7.57931 9.1294 8.25444 8.45427C8.92957 7.77914 9.84525 7.39985 10.8 7.39985H18ZM8.40003 18.1999C8.40003 18.8364 8.65288 19.4468 9.10297 19.8969C9.55306 20.347 10.1635 20.5999 10.8 20.5999H18C18.6365 20.5999 19.247 20.347 19.6971 19.8969C20.1472 19.4468 20.4 18.8364 20.4 18.1999V10.9999C20.4 10.3633 20.1472 9.75288 19.6971 9.3028C19.247 8.85271 18.6365 8.59985 18 8.59985H10.8C10.1635 8.59985 9.55306 8.85271 9.10297 9.3028C8.65288 9.75288 8.40003 10.3633 8.40003 10.9999V18.1999ZM4.80003 10.3999C4.80003 8.96768 5.36895 7.59417 6.38165 6.58148C7.39435 5.56878 8.76786 4.99985 10.2 4.99985H15.6C16.6704 4.99985 17.6316 5.46785 18.2916 6.20825C18.1945 6.20255 18.0973 6.19975 18 6.19985H10.2C9.08612 6.19985 8.01783 6.64235 7.23018 7.43001C6.44253 8.21766 6.00003 9.28594 6.00003 10.3999V18.1999C6.00003 18.2971 6.00243 18.3943 6.00843 18.4915C5.6279 18.154 5.3234 17.7395 5.11508 17.2755C4.90676 16.8115 4.79938 16.3085 4.80003 15.7999V10.3999Z" fill="black"/>
</svg>
