<svg width="20" height="20" viewBox="0 0 20 20" fill="none" xmlns="http://www.w3.org/2000/svg">
<path d="M6 14.2C6 14.2 13 15.2 16 18.2H17C17.2652 18.2 17.5196 18.0946 17.7071 17.9071C17.8946 17.7196 18 17.4652 18 17.2V11.137C18.4298 11.0265 18.8106 10.7762 19.0825 10.4255C19.3544 10.0749 19.502 9.64374 19.502 9.2C19.502 8.75626 19.3544 8.32512 19.0825 7.97445C18.8106 7.62378 18.4298 7.37349 18 7.263V1.2C18 0.93478 17.8946 0.680426 17.7071 0.49289C17.5196 0.305354 17.2652 0.199997 17 0.199997H16C13 3.2 6 4.2 6 4.2H2C1.46957 4.2 0.960859 4.41071 0.585786 4.78578C0.210714 5.16086 0 5.66956 0 6.2V12.2C0 12.7304 0.210714 13.2391 0.585786 13.6142C0.960859 13.9893 1.46957 14.2 2 14.2H3L4 19.2H6V14.2ZM8 5.861C8.683 5.715 9.527 5.511 10.44 5.244C12.118 4.75 14.25 3.973 16 2.774V15.625C14.25 14.427 12.117 13.65 10.44 13.156C9.63455 12.9206 8.82066 12.7151 8 12.54V5.861ZM2 6.2H6V12.2H2V6.2Z" fill="#29A06C"/>
</svg>
