<svg width="24" height="25" viewBox="0 0 24 25" fill="none" xmlns="http://www.w3.org/2000/svg">
<path d="M16.475 5.60802L18.592 7.72502M17.836 3.74302L12.109 9.47002C11.8131 9.76552 11.6113 10.142 11.529 10.552L11 13.2L13.648 12.67C14.058 12.588 14.434 12.387 14.73 12.091L20.457 6.36402C20.6291 6.19192 20.7656 5.98762 20.8588 5.76276C20.9519 5.5379 20.9998 5.2969 20.9998 5.05352C20.9998 4.81014 20.9519 4.56914 20.8588 4.34428C20.7656 4.11943 20.6291 3.91512 20.457 3.74302C20.2849 3.57092 20.0806 3.43441 19.8557 3.34127C19.6309 3.24813 19.3899 3.2002 19.1465 3.2002C18.9031 3.2002 18.6621 3.24813 18.4373 3.34127C18.2124 3.43441 18.0081 3.57092 17.836 3.74302Z" stroke="#1490FC" stroke-width="2" stroke-linecap="round" stroke-linejoin="round"/>
<path d="M19 15.2V18.2C19 18.7304 18.7893 19.2391 18.4142 19.6142C18.0391 19.9892 17.5304 20.2 17 20.2H6C5.46957 20.2 4.96086 19.9892 4.58579 19.6142C4.21071 19.2391 4 18.7304 4 18.2V7.19995C4 6.66952 4.21071 6.16081 4.58579 5.78574C4.96086 5.41066 5.46957 5.19995 6 5.19995H9" stroke="#1490FC" stroke-width="2" stroke-linecap="round" stroke-linejoin="round"/>
</svg>
