<svg width="24" height="25" viewBox="0 0 24 25" fill="none" xmlns="http://www.w3.org/2000/svg">
<path d="M20.6973 5.97541L20.6973 5.97548C20.8367 6.11477 20.9472 6.28016 21.0227 6.46219C21.0981 6.64422 21.1369 6.83932 21.1369 7.03635C21.1369 7.23338 21.0981 7.42849 21.0227 7.61052C20.9472 7.79255 20.8367 7.95793 20.6974 8.09723L20.6973 8.0973L8.9172 19.8774L3.38787 20.8099L4.32128 15.2805L16.1013 3.50046C16.1014 3.50044 16.1014 3.50042 16.1014 3.50041C16.3827 3.21923 16.7641 3.06128 17.1618 3.06128C17.5596 3.06128 17.941 3.21923 18.2223 3.50041C18.2223 3.50042 18.2223 3.50044 18.2223 3.50046L20.6973 5.97541ZM15.1654 5.85019L14.8116 6.20374L15.1653 6.55741L17.6403 9.03241L17.9938 9.38596L18.3474 9.03241L19.9904 7.38941L20.344 7.03578L19.9903 6.68223L17.5153 4.20823L17.1619 3.85492L16.8084 4.20819L15.1654 5.85019ZM16.9324 10.4474L17.2859 10.0939L16.9325 9.74037L14.4585 7.26537L14.1049 6.91167L13.7513 7.2653L5.36728 15.6493L5.25441 15.7622L5.22782 15.9196L4.72482 18.8966L4.60769 19.5898L5.30097 19.4729L8.27797 18.9709L8.43546 18.9443L8.54839 18.8314L16.9324 10.4474Z" fill="black" stroke="#1490FC"/>
</svg>
