<svg width="19" height="20" viewBox="0 0 19 20" fill="none" xmlns="http://www.w3.org/2000/svg">
<path d="M13.475 3.60799L15.592 5.72499M14.836 1.74299L9.109 7.46999C8.81309 7.76549 8.61128 8.14198 8.529 8.55199L8 11.2L10.648 10.67C11.058 10.588 11.434 10.387 11.73 10.091L17.457 4.36399C17.6291 4.19189 17.7656 3.98759 17.8588 3.76273C17.9519 3.53787 17.9998 3.29687 17.9998 3.05349C17.9998 2.81011 17.9519 2.56911 17.8588 2.34425C17.7656 2.1194 17.6291 1.91509 17.457 1.74299C17.2849 1.57089 17.0806 1.43438 16.8557 1.34124C16.6309 1.2481 16.3899 1.20016 16.1465 1.20016C15.9031 1.20016 15.6621 1.2481 15.4373 1.34124C15.2124 1.43438 15.0081 1.57089 14.836 1.74299Z" stroke="#1490FC" stroke-width="2" stroke-linecap="round" stroke-linejoin="round"/>
<path d="M16 13.2V16.2C16 16.7304 15.7893 17.2391 15.4142 17.6142C15.0391 17.9893 14.5304 18.2 14 18.2H3C2.46957 18.2 1.96086 17.9893 1.58579 17.6142C1.21071 17.2391 1 16.7304 1 16.2V5.2C1 4.66956 1.21071 4.16086 1.58579 3.78578C1.96086 3.41071 2.46957 3.2 3 3.2H6" stroke="#1490FC" stroke-width="2" stroke-linecap="round" stroke-linejoin="round"/>
</svg>
