<svg width="24" height="25" viewBox="0 0 24 25" fill="none" xmlns="http://www.w3.org/2000/svg">
<g clip-path="url(#clip0_355_7821)">
<path d="M12 4.19995C14.787 4.19995 17.263 5.45695 19.026 7.01295C19.911 7.79395 20.64 8.67095 21.154 9.54395C21.659 10.401 22 11.33 22 12.2C22 13.07 21.66 13.999 21.154 14.856C20.64 15.729 19.911 16.606 19.026 17.387C17.263 18.943 14.786 20.2 12 20.2C9.213 20.2 6.737 18.943 4.974 17.387C4.089 16.606 3.36 15.729 2.846 14.856C2.34 13.999 2 13.07 2 12.2C2 11.33 2.34 10.401 2.846 9.54395C3.36 8.67095 4.089 7.79395 4.974 7.01295C6.737 5.45695 9.214 4.19995 12 4.19995ZM12 6.19995C9.816 6.19995 7.792 7.19295 6.298 8.51195C5.554 9.16795 4.966 9.88495 4.569 10.559C4.163 11.249 4 11.82 4 12.2C4 12.58 4.163 13.151 4.569 13.841C4.966 14.515 5.554 15.231 6.298 15.888C7.792 17.207 9.816 18.2 12 18.2C14.184 18.2 16.208 17.207 17.702 15.888C18.446 15.231 19.034 14.515 19.431 13.841C19.837 13.151 20 12.58 20 12.2C20 11.82 19.837 11.249 19.431 10.559C19.034 9.88495 18.446 9.16895 17.702 8.51195C16.208 7.19295 14.184 6.19995 12 6.19995ZM12 9.19995C12.088 9.19995 12.175 9.20395 12.261 9.21095C12.0439 9.59181 11.9579 10.0334 12.0163 10.4679C12.0747 10.9024 12.2743 11.3057 12.5843 11.6157C12.8943 11.9257 13.2975 12.1252 13.732 12.1836C14.1665 12.242 14.6081 12.1561 14.989 11.939C15.0416 12.5411 14.911 13.1451 14.6145 13.6718C14.3179 14.1985 13.8692 14.6234 13.327 14.8907C12.7849 15.158 12.1746 15.2553 11.5762 15.1698C10.9778 15.0844 10.4192 14.8201 9.97357 14.4118C9.52792 14.0034 9.21603 13.4699 9.07876 12.8812C8.94149 12.2926 8.98524 11.6762 9.20429 11.1128C9.42334 10.5494 9.80746 10.0654 10.3063 9.72402C10.8052 9.3827 11.3955 9.20003 12 9.19995Z" fill="#123259"/>
</g>
<defs>
<clipPath id="clip0_355_7821">
<rect width="24" height="24" fill="white" transform="translate(0 0.199951)"/>
</clipPath>
</defs>
</svg>
