<svg width="12" height="12" viewBox="0 0 12 12" fill="none" xmlns="http://www.w3.org/2000/svg">
<path d="M10.4629 6.57498C10.5827 5.64476 10.4089 4.70035 9.96565 3.87376C9.52245 3.04717 8.83206 2.37972 7.99096 1.96471C7.14987 1.54969 6.20012 1.40785 5.27448 1.55902C4.34883 1.71019 3.49355 2.1468 2.82819 2.80783C2.16282 3.46887 1.72063 4.32128 1.56342 5.24592C1.40622 6.17056 1.54185 7.12121 1.95136 7.96499C2.36087 8.80878 3.0238 9.50352 3.84748 9.95211C4.67115 10.4007 5.61441 10.5807 6.5454 10.467" stroke="#123259" stroke-linecap="round" stroke-linejoin="round"/>
<path d="M6 3.5V6L7 7M11 11L8.5 8.5M8.5 11L11 8.5" stroke="#123259" stroke-linecap="round" stroke-linejoin="round"/>
</svg>
