<svg width="16" height="21" viewBox="0 0 16 21" fill="none" xmlns="http://www.w3.org/2000/svg">
<path d="M5 5.2H11M5 9.2H11M5 13.2H9M1 3.2C1 2.66956 1.21071 2.16086 1.58579 1.78578C1.96086 1.41071 2.46957 1.2 3 1.2H13C13.5304 1.2 14.0391 1.41071 14.4142 1.78578C14.7893 2.16086 15 2.66956 15 3.2V17.2C15 17.7304 14.7893 18.2391 14.4142 18.6142C14.0391 18.9893 13.5304 19.2 13 19.2H3C2.46957 19.2 1.96086 18.9893 1.58579 18.6142C1.21071 18.2391 1 17.7304 1 17.2V3.2Z" stroke="#CD8801" stroke-width="2" stroke-linecap="round" stroke-linejoin="round"/>
</svg>
