<svg width="13" height="22" viewBox="0 0 13 22" fill="none" xmlns="http://www.w3.org/2000/svg">
<path id="Vector" d="M13 2.47642V0.23268C13 0.0382038 12.7897 -0.0691937 12.6477 0.0498143L0.335963 10.27C0.231357 10.3564 0.146715 10.4672 0.0884906 10.5937C0.0302667 10.7202 0 10.8592 0 11C0 11.1408 0.0302667 11.2798 0.0884906 11.4063C0.146715 11.5328 0.231357 11.6436 0.335963 11.73L12.6477 21.9502C12.7924 22.0692 13 21.9618 13 21.7673V19.5236C13 19.3814 12.9372 19.2449 12.8334 19.1579L3.0015 11.0015L12.8334 2.84215C12.9372 2.75507 13 2.61865 13 2.47642Z" fill="#A9A9A9"/>
</svg>
